<svg width="555" height="440" xmlns="http://www.w3.org/2000/svg" xmlns:xlink="http://www.w3.org/1999/xlink" xml:space="preserve" overflow="hidden"><defs><clipPath id="clip0"><rect x="362" y="140" width="555" height="440"/></clipPath><clipPath id="clip1"><rect x="362" y="140" width="555" height="440"/></clipPath><clipPath id="clip2"><rect x="363" y="140" width="554" height="440"/></clipPath><clipPath id="clip3"><rect x="363" y="140" width="555" height="440"/></clipPath><clipPath id="clip4"><rect x="363" y="140" width="555" height="440"/></clipPath></defs><g clip-path="url(#clip0)" transform="translate(-362 -140)"><g clip-path="url(#clip1)"><g clip-path="url(#clip2)"><g clip-path="url(#clip3)"><g clip-path="url(#clip4)"><path d="M112.685 298.364C107.675 288.263 86.3763 283.149 49.2544 283.149 27.5465 283.149 7.08806 284.97 1.88003 285.461-2.63905 273.153 1.0743 269.813 12.5763 259.456 20.8438 252.017 32.159 241.835 46.2768 223.046 66.0112 196.948 84.1459 162.138 90.1013 150.694L90.4516 150.017 87.8476 148.044C61.0367 173.161 24.744 185.761 11.9575 185.761 10.9415 185.761 10.1008 185.679 9.44686 185.527 6.38743 184.768 4.2505 183.122 2.90762 180.518-0.607215 173.663 2.46389 162.348 4.01696 157.619 7.97553 160.55 12.8332 162.045 18.5084 162.045 35.8257 162.045 57.4869 148.616 74.8976 137.826 84.3912 131.941 92.6002 126.849 96.5822 126.324 97.9134 126.581 106.344 131.042 110.361 137.966 112.65 141.913 113.047 145.895 111.517 149.784 89.8794 206.173 50.936 253.547 39.0019 265.691L35.6505 269.101 40.4031 268.482C52.454 266.929 66.5717 266.065 80.1523 266.065 100.05 266.065 114.799 267.91 118.64 270.899 121.174 272.885 122.482 275.29 122.646 278.268 123.054 285.765 116.083 294.522 112.673 298.353Z" fill="#E30613" fill-rule="nonzero" fill-opacity="1" transform="matrix(1 0 0 1.00123 363.18 140)"/><path d="M241.566 260.098C236.592 260.098 232.166 257.693 229.422 253.5 226.141 248.409 224.191 242.174 223.292 233.859L222.871 230.041 220.384 232.972C213.436 241.146 207.165 245.291 201.747 245.291 201.268 245.291 200.778 245.256 200.311 245.198 193.246 244.275 185.574 241.893 183.729 225.23L183.262 220.968 180.751 224.436C171.316 237.468 156.813 253.267 141.306 254.551 140.138 254.656 138.994 254.703 137.884 254.703 128.846 254.703 121.49 251.153 116.609 244.439 108.715 233.591 107.675 214.907 113.888 195.698 121.373 172.811 135.934 160.2 154.886 160.2 156.066 160.2 157.28 160.246 158.483 160.34 163.201 160.76 166.891 163.014 169.425 167.042 174.644 175.31 173.967 189.509 171.503 196.154 169.845 201.011 161.332 214.23 148.534 214.23 145.37 214.23 142.123 213.401 138.9 211.754L136.728 210.645 136.495 213.062C135.888 219.438 136.121 224.611 137.195 228.429 139.169 235.564 143.688 237.071 147.133 237.071 153.602 237.071 162.512 231.512 171.573 221.832 175.695 217.418 179.701 212.572 183.484 207.434L183.764 207.06 183.799 206.593C185.037 191.962 188.75 172.683 194.822 149.293L195.43 146.958 193.024 147.238C177.54 149.036 164.182 149.959 153.345 149.959 143.828 149.959 136.331 149.246 131.077 147.833 127.679 146.934 125.495 145.241 124.409 142.66 122.237 137.476 124.946 130.096 126.721 126.196 131.263 131.637 142.73 134.206 162.22 134.206 172.145 134.206 184.383 133.505 198.583 132.128L199.739 132.011 200.031 130.89C206.395 106.438 211.848 101.533 218.586 101.533 222.287 101.533 226.666 102.97 232.213 104.78 232.657 104.92 233.112 105.071 233.579 105.223 232.084 108.82 228.429 117.73 225.195 126.838L224.261 129.465 228.593 128.788C232.084 128.239 236.043 127.62 240.107 126.849L241.146 126.651 241.403 125.623C247.405 101.919 252.788 97.1543 259.526 97.1543 263.298 97.1543 267.945 98.7308 273.328 100.552 273.725 100.681 274.122 100.821 274.519 100.961 273.422 103.775 271.028 110.046 268.109 118.582L267.163 121.35 270.024 120.731C293.775 115.628 314.35 111.401 325.63 111.401 328.083 111.401 329.974 111.611 331.224 112.019 333.921 112.954 335.603 114.472 336.327 116.667 337.927 121.513 334.587 128.297 332.742 131.497 330.009 129.372 325.012 128.379 317.363 128.379 302.848 128.379 280.872 132.139 263.356 135.421L262.375 135.607 262.083 136.553C256.069 155.856 248.596 183.776 245.653 204.258 242.395 226.573 244.077 241.73 250.651 249.332 252.625 251.609 254.691 252.776 256.361 253.36 251.726 257.728 246.552 260.11 241.578 260.11ZM232.552 141.177C228.628 141.855 222.054 142.976 220.512 143.303L219.555 143.501 219.275 144.435C215.421 157.234 206.266 190.058 204.655 218.527 204.351 223.992 204.993 227.355 206.663 229.118 207.469 229.971 208.508 230.415 209.664 230.415 214.312 230.415 219.999 222.871 222.614 218.399L222.824 218.048 222.824 217.64C223.583 199.809 228.605 172.554 236.615 142.859L237.292 140.36 232.575 141.177ZM155.821 168.093C153.812 168.093 151.722 169.752 149.223 173.313 145.405 178.988 141.364 189.416 138.655 200.579L138.422 201.56 139.192 202.226C141.925 204.573 144.657 205.776 147.331 205.776 150.005 205.776 152.341 204.678 154.478 202.506 159.02 197.905 161.332 189.381 161.262 183.32 161.18 176.232 160.492 168.105 155.821 168.105Z" fill="#E30613" fill-rule="nonzero" fill-opacity="1" transform="matrix(1 0 0 1.00123 363.18 140)"/><path d="M286.442 287.901C284.667 287.901 282.962 287.68 281.374 287.248 275.325 285.566 273.095 280.743 272.277 276.995 270.421 268.412 274.157 257.646 280.977 251.959 285.391 248.094 293.448 243.26 304.285 237.946L305.09 237.549 305.207 236.662C306.083 229.807 307.309 222.427 308.885 214.72L305.803 213.599C299.742 224.833 297.43 228.149 291.848 236.16 291.241 237.001 286.162 239.429 279.786 239.429 274.064 239.429 266.556 237.468 263.228 228.138 257.751 212.677 262.69 195.827 269.545 172.507 270.432 169.483 271.355 166.353 272.277 163.119 275.582 151.687 277.742 147.028 285.823 147.028 289.723 147.028 294.99 148.219 301.879 150.683 298.539 158.576 284.433 192.58 281.245 209.828 280.848 211.883 279.727 218.878 282.25 221.925 282.974 222.801 283.931 223.268 285.006 223.268 287.294 223.268 289.723 221.213 292.666 216.787L292.888 216.449C298.353 208.193 316.686 179.607 323.003 158.425 326.121 147.588 328.818 142.754 336.514 142.754 340.355 142.754 345.552 144.003 352.371 146.572 349.218 155.248 333.734 198.559 329.472 223.327L328.959 226.328 331.761 225.125C333.174 224.518 338.312 221.166 345.061 213.027 350.608 206.208 353.866 199.669 355.618 196.165 356.038 195.313 356.47 194.449 356.75 193.97 358.373 194.075 361.865 195.395 361.947 197.356 361.69 199.704 353.959 217.5 342.189 228.009 337.436 232.119 327.137 237.876 325.444 238.694L324.545 238.764 324.241 239.885C322.314 246.926 320.563 252.695 318.753 258.031 311.688 280.078 296.951 287.901 286.453 287.901ZM299.952 248.456C292.677 252.006 283.581 257.646 281.561 264.325 280.44 268.155 280.697 271.67 282.25 273.737 283.137 274.928 284.422 275.582 285.858 275.582 291.44 275.582 297.418 266.404 302.264 250.406L303.362 246.774 299.952 248.444Z" fill="#E30613" fill-rule="nonzero" fill-opacity="1" transform="matrix(1 0 0 1.00123 363.18 140)"/><path d="M352.99 394.071C345.914 394.071 340.647 391.688 337.331 387.006 332.777 380.572 332.952 371.23 335.054 365.286L336.479 361.223 332.695 363.278C330.115 364.679 327.394 365.426 324.603 365.508L323.715 365.532 323.248 366.291C314.969 379.673 304.506 386.165 291.276 386.165 290.821 386.165 290.365 386.165 289.922 386.142 282.834 385.932 275.816 382.008 271.156 375.644 265.96 368.544 261.149 355.221 267.77 332.076 276.68 301.225 295.69 296.613 306.235 296.613 310.217 296.613 313.078 297.278 314.42 297.687 319.722 299.38 324.521 303.771 327.581 309.715 331.528 317.386 334.657 331.399 327.195 354.567L326.483 356.785 328.818 356.727C335.019 356.563 340.449 346.159 341.967 342.971L342.434 342.878 343.427 339.608C347.093 327.44 354.707 302.124 365.777 291.603 370.074 287.458 374.628 285.356 379.334 285.356 388.477 285.356 395.787 293.331 397.153 295.889 396.897 296.076 396.546 296.309 396.243 296.519 391.595 299.614 380.712 306.854 388.057 336.047 392.331 352.827 390.404 368.626 382.779 379.392 376.753 387.893 367.505 392.915 356.026 393.931 354.999 394.024 353.983 394.071 353.014 394.071ZM351.169 359.553C345.213 365.064 343.847 374.686 345.365 380 346.276 383.164 348.156 384.986 350.538 384.986 353.516 384.986 356.68 382.078 359.926 376.333 366.361 364.667 362.717 347.385 359.786 333.501 359.191 330.698 358.642 328.059 358.187 325.607L357.287 320.679 355.069 325.175C352.313 330.768 350.573 335.941 349.043 340.496 347.957 343.719 347.012 346.556 345.937 348.716L345.493 348.751 345.003 349.569C343.847 351.764 342.551 353.819 341.15 355.664L338.721 358.876 342.703 358.303C343.251 358.222 343.824 358.187 344.407 358.187 346.953 358.187 349.417 358.899 351.145 359.564ZM287.294 349.429C284.036 364.014 284.492 372.701 288.637 375.259 289.057 375.539 289.63 375.702 290.295 375.702 293.261 375.702 298.668 372.328 304.039 364.796L305.125 363.278 303.491 362.379C296.648 358.63 292.572 353.037 290.354 348.985L288.24 345.143 287.283 349.429ZM312.237 304.541C306.935 304.541 299.439 309.609 295.76 323.891 294.102 330.115 296.519 341.29 300.945 347.794 303.304 351.274 306.118 353.305 309.061 353.656L310.112 353.784 310.66 352.873C321.87 334.505 320.376 315.658 316.814 308.091 315.81 305.966 314.642 304.798 313.346 304.612 312.972 304.565 312.599 304.541 312.237 304.541Z" fill="#E30613" fill-rule="nonzero" fill-opacity="1" transform="matrix(1 0 0 1.00123 363.18 140)"/><path d="M413.385 371.814C412.871 371.814 412.369 371.779 411.878 371.72 407.861 371.23 404.907 369.373 402.875 366.022 396.172 355.034 399.874 328.912 413.303 292.456 415.592 286.383 418.499 284.013 423.672 284.013 427.199 284.013 431.846 285.099 439.04 287.621 435.77 295.398 422.189 328.316 419.036 344.828 417.869 350.865 418.021 354.532 419.539 356.365 420.239 357.217 421.197 357.661 422.318 357.661L422.318 357.661C426.44 357.661 431.987 351.028 433.773 348.471 438.024 342.282 440.102 338.265 441.352 335.871 441.76 335.089 442.169 334.295 442.403 333.956 443.769 333.98 446.957 335.206 447.015 337.133 446.84 340.706 429.733 371.814 413.396 371.814Z" fill="#E30613" fill-rule="nonzero" fill-opacity="1" transform="matrix(1 0 0 1.00123 363.18 140)"/><path d="M291.44 439.46C251.223 439.46 218.504 418.745 191.401 376.111L189.089 372.479 188.377 376.73C187.898 379.591 187.396 382.557 186.742 385.71 182.55 410.524 184.185 425.039 185.049 430.001 184.418 430.036 183.799 430.048 183.204 430.048 176.478 430.048 171.585 428.051 168.269 423.929 158.32 411.598 164.485 383.141 169.448 360.277L169.81 358.607C173.033 340.262 178.731 320.855 181.254 315.53 182.596 312.622 185.341 311.151 189.404 311.151 193.468 311.151 198.664 312.669 204.293 315.565 202.763 318.846 199.12 327.849 194.496 347.023L193.807 349.884 196.609 348.985C203.032 346.93 211.568 342.177 222.696 334.458 233.509 327.043 238.484 315.74 235.366 305.663 232.388 296.052 223.081 290.307 210.458 290.307 206.453 290.307 202.132 290.891 197.625 292.035 159.312 301.681 132.408 335.124 125.542 355.781 123.568 361.713 123.159 366.594 124.304 370.132 118.792 369.408 107.127 367.061 102.9 359.763 100.424 355.501 100.868 350.001 104.219 343.415 118.325 315.436 171.036 280.813 204.935 277.24 208.333 276.878 211.614 276.691 214.674 276.691 234.361 276.691 246.95 283.931 253.15 298.808 257.074 308.161 257.249 317.071 253.652 325.292 245.969 342.878 222.918 354.415 204.935 360.989L202.786 361.771 204.199 363.57C234.98 402.548 267.525 421.5 303.666 421.5 327.744 421.5 351.028 413.151 368.638 405.888 398.613 393.51 429.604 380.712 452.036 380.712 459.405 380.712 465.36 382.043 470.253 384.787 472.46 386.013 473.686 387.601 474.013 389.668 474.76 394.526 470.288 401.077 467.485 404.417 465.255 402.548 460.023 399.781 448.65 399.781 429.955 399.781 402.548 407.056 367.201 421.419 336.899 433.726 312.832 439.46 291.44 439.46Z" fill="#E30613" fill-rule="nonzero" fill-opacity="1" transform="matrix(1 0 0 1.00123 363.18 140)"/><path d="M438.771 272.826C430.62 272.826 423.988 265.843 423.988 257.249 423.988 248.654 430.62 241.671 438.771 241.671 446.922 241.671 453.554 248.654 453.554 257.249 453.554 265.843 446.922 272.826 438.771 272.826Z" fill="#E30613" fill-rule="nonzero" fill-opacity="1" transform="matrix(1 0 0 1.00123 363.18 140)"/><path d="M389.54 29.0996C354.847 16.7334 316.219 9.82053 275.489 9.82053 161.437 9.82053 63.7809 63.9444 23.261 140.71 25.4797 140.85 27.71 140.769 29.8353 140.559 73.7065 78.7627 167.218 36.0826 275.489 36.0826 308.92 36.0826 340.939 40.1579 370.529 47.608 376.403 39.9944 383.059 33.9106 389.54 29.0996Z" fill="#FFCC00" fill-rule="nonzero" fill-opacity="1" transform="matrix(1 0 0 1.00123 363.18 140)"/><path d="M79.3349 347.385C59.2385 333.291 42.435 317.036 29.7769 299.182 27.6283 299.123 25.433 299.077 23.226 299.065 37.6123 326.343 59.2151 350.76 86.2011 370.915 82.9782 363.033 80.2458 354.707 79.3349 347.397Z" fill="#FFCC00" fill-rule="nonzero" fill-opacity="1" transform="matrix(1 0 0 1.00123 363.18 140)"/><path d="M553.593 233.451C554.352 200.579 544.87 169.401 527.541 141.936 525.801 151.979 522.368 164.228 515.654 174.189 521.551 192.732 524.528 212.42 524.061 232.762 522.917 282.016 501.84 326.46 468.151 359.658 474.223 359.751 480.692 360.721 486.227 363.441 526.899 330.033 552.414 284.34 553.605 233.439Z" fill="#FFCC00" fill-rule="nonzero" fill-opacity="1" transform="matrix(1 0 0 1.00123 363.18 140)"/><path d="M451.254 183.869C427.07 183.776 409.309 172.029 398.473 148.931 397.854 147.6 396.336 146.327 394.876 145.895 387.403 143.665 383.222 138.97 382.09 131.544 381.961 130.726 381.821 129.921 381.669 129.103 381.354 127.34 381.051 125.658 380.98 123.965 380.665 116.865 383.409 111.903 389.353 108.797 389.703 108.61 389.96 108.364 390.17 108.154 390.241 108.084 390.299 108.026 390.369 107.967L391.011 107.419 390.579 106.695C390.042 105.807 389.493 104.943 388.956 104.079 387.777 102.199 386.667 100.424 385.686 98.5439 378.014 83.7489 378.283 68.1715 386.469 52.2555 392.389 40.7418 401.637 32.7312 413.945 28.469 415.23 28.0253 416.584 26.6474 417.086 25.2695 422.54 10.381 436.015 0.770696 451.406 0.770696L451.593 0.770696C466.925 0.852436 480.353 10.4978 485.807 25.3512 486.309 26.7174 487.78 28.1304 489.228 28.6442 513.155 37.0284 527.553 63.7459 521.317 88.2096 519.589 95.0057 516.681 101.008 512.454 106.566L511.777 107.454 512.734 108.026C520.476 112.662 523.291 119.189 521.34 127.982 521.142 128.893 520.967 129.815 520.803 130.738 520.43 132.781 520.079 134.708 519.379 136.495 517.405 141.493 513.657 144.646 508.262 145.872 506.324 146.315 505.179 147.238 504.315 149.095 493.537 172.192 475.776 183.904 451.511 183.904L451.242 183.904ZM449.771 78.2957C449.467 78.8912 449.14 79.4984 448.825 80.1056 443.851 89.4124 436.973 97.0376 428.39 102.794 419.258 108.913 409.146 112.089 398.333 112.218 394.129 112.265 390.848 113.572 388.839 116.001 386.842 118.395 386.165 121.817 386.866 125.88 387.018 126.733 387.134 127.585 387.263 128.438 387.415 129.489 387.566 130.539 387.765 131.59 388.734 136.798 393.101 140.594 398.146 140.629 400.633 140.652 401.754 141.528 402.758 144.26 410.349 164.941 429.464 178.346 451.476 178.428L451.663 178.428C473.534 178.428 492.579 165.022 500.205 144.284 501.151 141.703 502.388 140.757 504.922 140.664 510.119 140.465 513.879 137.149 514.988 131.789 515.268 130.423 515.502 129.033 515.712 127.69 515.841 126.873 515.981 126.055 516.121 125.238 516.74 121.805 516.004 118.594 514.077 116.177 512.127 113.759 509.126 112.346 505.623 112.206L504.222 112.16C501.875 112.078 499.446 111.996 497.145 111.599 482.257 109.053 469.961 101.755 460.607 89.9145 458.505 87.2521 456.649 84.4379 454.699 81.4485 453.799 80.0823 452.889 78.6927 451.943 77.3031L451.009 75.9369 449.771 78.3073ZM426.358 32.124C417.997 32.124 409.975 35.055 403.167 40.59 392.412 49.3362 386.422 61.1418 385.862 74.6991 385.885 86.4113 389.038 95.7764 395.787 104.219 397.13 105.889 398.648 106.706 400.435 106.706 401.03 106.706 401.637 106.625 402.315 106.438 402.77 106.321 403.261 106.263 403.774 106.204 404.113 106.169 404.44 106.134 404.779 106.076 416.222 104.196 426.206 99.0344 434.439 90.7202 441.106 83.9941 445.812 75.6916 448.428 66.0346 448.965 64.0611 449.853 63.2204 451.394 63.2204 452.924 63.2204 453.776 64.0378 454.348 66.0463 457.805 78.0621 464.321 87.9177 473.733 95.3444 482.28 102.094 491.867 105.854 502.202 106.519 502.283 106.519 502.365 106.519 502.447 106.519 503.906 106.519 505.716 105.69 506.639 104.604 515.992 93.5694 519.075 80.7012 515.782 66.3616 511.87 49.3595 497.11 32.1473 476.453 32.1473 469.412 32.1473 462.289 34.1675 455.294 38.1611 453.823 39.0019 452.585 39.3989 451.406 39.3989 450.226 39.3989 448.942 38.9902 447.354 38.0794 440.464 34.1208 433.399 32.124 426.358 32.124ZM426.405 26.554C433.96 26.554 441.468 28.5391 449.374 32.6144 449.864 32.8713 450.471 32.9998 451.172 32.9998 451.873 32.9998 452.737 32.8597 453.496 32.6028 455.388 31.9605 457.279 31.2482 459.113 30.5592 462.102 29.4266 465.196 28.2705 468.291 27.4181 470.475 26.8225 472.787 26.6824 475.227 26.5306 476.325 26.4605 477.434 26.3905 478.532 26.2854L479.781 26.1569 479.361 24.9659C475.659 14.398 463.678 6.42246 451.487 6.42246L450.927 6.42246C438.572 6.67936 426.545 14.9118 423.532 25.1761L423.205 26.2971 424.373 26.4372 424.688 26.4839C424.968 26.5306 425.249 26.5656 425.517 26.5656 425.856 26.5656 426.125 26.5656 426.405 26.5656Z" fill="#E30613" fill-rule="nonzero" fill-opacity="1" transform="matrix(1 0 0 1.00123 363.18 140)"/><path d="M450.927 164.345C440.791 164.217 432.08 160.818 425.027 154.244 424.093 153.368 423.579 152.434 423.579 151.547 423.579 150.858 423.859 150.227 424.431 149.667 424.992 149.13 425.552 148.861 426.16 148.861 426.965 148.861 427.899 149.316 428.927 150.227 435.431 155.926 442.753 158.822 450.682 158.822 454.523 158.822 458.564 158.133 462.663 156.79 466.317 155.587 469.599 153.275 472.775 151.045L473.522 150.519C475.04 149.457 476.126 148.966 476.944 148.966 477.528 148.966 478.018 149.211 478.544 149.772 479.081 150.344 479.326 150.928 479.303 151.582 479.256 152.563 478.579 153.66 477.341 154.77 470.159 161.145 461.518 164.287 450.915 164.357Z" fill="#E30613" fill-rule="nonzero" fill-opacity="1" transform="matrix(1 0 0 1.00123 363.18 140)"/><path d="M469.891 141.703C461.261 141.703 454.01 134.848 453.508 126.324 452.842 125.448 452.118 124.981 451.452 124.981 450.787 124.981 450.051 125.46 449.397 126.324 448.895 134.848 441.725 141.703 433.189 141.703 425.237 141.703 418.406 135.899 417.028 128.239L410.127 128.239C408.539 128.239 407.254 126.943 407.254 125.355 407.254 123.767 408.55 122.471 410.127 122.471L417.028 122.471C418.418 114.81 425.237 109.007 433.189 109.007 440.09 109.007 446.198 113.444 448.486 119.831 449.432 119.423 450.436 119.213 451.452 119.213 452.468 119.213 453.484 119.423 454.43 119.843 456.742 113.456 462.919 109.018 469.902 109.018 477.387 109.018 483.787 114.086 485.62 121.256L492.79 121.256C494.378 121.256 495.662 122.552 495.662 124.14 495.662 125.728 494.366 127.025 492.79 127.025L486.075 127.025C485.246 135.257 478.31 141.715 469.902 141.715ZM469.891 114.775C464.005 114.775 459.218 119.528 459.218 125.355 459.218 131.182 464.005 135.934 469.891 135.934 475.776 135.934 480.389 131.287 480.389 125.355 480.389 119.423 475.776 114.775 469.891 114.775ZM433.178 114.775C427.292 114.775 422.505 119.528 422.505 125.355 422.505 131.182 427.292 135.934 433.178 135.934 439.063 135.934 443.675 131.287 443.675 125.355 443.675 119.423 439.063 114.775 433.178 114.775Z" fill="#E30613" fill-rule="nonzero" fill-opacity="1" transform="matrix(1 0 0 1.00123 363.18 140)"/><path d="M438.537 131.836C438.537 134.776 436.153 137.16 433.213 137.16 430.272 137.16 427.888 134.776 427.888 131.836 427.888 128.895 430.272 126.511 433.213 126.511 436.153 126.511 438.537 128.895 438.537 131.836Z" fill="#E30613" fill-rule="nonzero" fill-opacity="1" transform="matrix(1 0 0 1.00123 363.18 140)"/><path d="M475.904 131.824C475.904 134.765 473.52 137.149 470.58 137.149 467.639 137.149 465.255 134.765 465.255 131.824 465.255 128.883 467.639 126.499 470.58 126.499 473.52 126.499 475.904 128.883 475.904 131.824Z" fill="#E30613" fill-rule="nonzero" fill-opacity="1" transform="matrix(1 0 0 1.00123 363.18 140)"/><path d="M547.147 32.8363C543.434 36.4329 538.961 38.2312 533.765 38.2312 528.569 38.2312 523.851 36.3862 520.173 32.7079 516.494 29.0295 514.649 24.4988 514.649 19.1156 514.649 13.7324 516.635 8.88635 520.616 5.18468 524.353 1.72823 528.732 1.03714e-15 533.765 1.03714e-15 538.798 1.03714e-15 543.539 1.86835 547.276 5.60506 551.012 9.34176 552.881 13.8492 552.881 19.1156 552.881 24.382 550.966 29.1229 547.147 32.8363ZM522.532 8.04559C519.484 11.1634 517.966 14.8534 517.966 19.1273 517.966 23.4011 519.519 27.313 522.613 30.4074 525.696 33.5019 529.409 35.055 533.765 35.055 538.121 35.055 541.811 33.5019 544.893 30.3841 547.976 27.2546 549.506 23.5062 549.506 19.1273 549.506 14.7483 547.976 11.1868 544.917 8.04559 541.822 4.86939 538.097 3.26962 533.765 3.26962 529.433 3.26962 525.626 4.85772 522.532 8.04559ZM525.381 29.7535 525.381 8.55939C526.7 8.55939 528.662 8.55939 531.278 8.57107 533.893 8.57107 535.353 8.59442 535.645 8.6061 537.327 8.72287 538.716 9.08487 539.826 9.69208 541.706 10.7313 542.651 12.4129 542.651 14.7483 542.651 16.5349 542.149 17.8194 541.157 18.6018 540.164 19.3842 538.938 19.8629 537.49 20.0264 538.821 20.3067 539.826 20.7154 540.503 21.2525 541.752 22.2568 542.371 23.8449 542.371 26.0051L542.371 27.8968C542.371 28.107 542.383 28.3172 542.418 28.5157 542.441 28.7259 542.5 28.9361 542.57 29.1346L542.768 29.7302 537.478 29.7302C537.303 29.0529 537.186 28.0837 537.128 26.7992 537.07 25.5147 536.953 24.6506 536.778 24.2068 536.497 23.4595 535.984 22.9457 535.225 22.6538 534.804 22.4786 534.174 22.3735 533.333 22.3151L532.119 22.2334 530.951 22.2334 530.951 29.7302 525.404 29.7302ZM535.505 12.7398C534.746 12.4479 533.672 12.2961 532.294 12.2961L530.939 12.2961 530.939 18.4383 533.088 18.4383C534.384 18.4383 535.4 18.1814 536.124 17.6559 536.848 17.1421 537.21 16.3014 537.21 15.1453 537.21 13.9893 536.638 13.1836 535.493 12.7282Z" fill="#E30613" fill-rule="nonzero" fill-opacity="1" transform="matrix(1 0 0 1.00123 363.18 140)"/></g></g></g></g></g></svg>