<svg width="824" height="396" xmlns="http://www.w3.org/2000/svg" xmlns:xlink="http://www.w3.org/1999/xlink" xml:space="preserve" overflow="hidden"><g transform="translate(-228 -176)"><g><g><g><g><path d="M492.446 164.122 492.446 98.4729 441.564 98.4729 441.564 164.122 398.651 164.122 398.651 0 441.564 0 441.564 59.325 492.446 59.325 492.446 0 535.359 0 535.359 164.122 492.446 164.122Z" fill="#009579" fill-rule="nonzero" fill-opacity="1" transform="matrix(1.0012 0 0 1 229.79 177)"/><path d="M620.451 154.18C613.883 159.786 600.763 165.116 587.92 165.116 569.878 165.116 553.205 156.771 553.205 137.784 553.205 123.295 561.403 113.451 573.839 107.16 568.786 101.83 565.364 96.3705 565.364 88.7104 565.364 70.261 583.275 64.1003 598.856 64.1003 617.029 64.1003 631.664 74.2214 631.664 90.0631 631.664 101.814 625.65 109.474 615.676 114.934L624.151 123.686C626.889 121.355 628.926 118.634 630.572 115.488L656.535 115.488C652.021 124.093 646.691 132.291 639.993 139.414L662.402 162.508 628.242 162.508 620.451 154.163ZM591.212 123.425C585.883 126.163 580.553 129.57 580.553 135.176 580.553 140.783 584.514 144.189 590.12 144.189 593.266 144.189 598.318 142.282 601.057 140.636 605.017 138.305 605.701 138.729 603.925 136.806L591.212 123.409ZM589.974 88.5637C589.974 93.4857 593.657 96.9083 598.318 100.038 604.74 97.0387 610.477 93.6161 608.016 85.5486 606.647 82.5334 602.686 81.1807 599.541 81.1807 594.749 81.1807 589.974 83.0876 589.974 88.5637Z" fill="#009579" fill-rule="nonzero" fill-opacity="1" transform="matrix(1.0012 0 0 1 229.79 177)"/><path d="M776.521 164.122 776.521 98.4729 725.639 98.4729 725.639 164.122 682.726 164.122 682.726 0 725.639 0 725.639 59.325 776.521 59.325 776.521 0 819.434 0 819.434 164.122 776.521 164.122Z" fill="#009579" fill-rule="nonzero" fill-opacity="1" transform="matrix(1.0012 0 0 1 229.79 177)"/><path d="M416.905 254.38 406.148 270.287 397.868 270.287 398.048 269.277 441.547 205.633 445.035 205.633 461.219 269.277 461.04 270.287 453.412 270.287 449.37 254.38 416.905 254.38ZM420.865 247.763 448.181 247.763 441.009 217.693 420.865 247.763Z" fill="#009579" fill-rule="nonzero" fill-opacity="1" transform="matrix(1.0012 0 0 1 229.79 177)"/><path d="M487.361 202.878 476.425 254.282C474.404 262.92 475.871 265.968 485.34 264.762L484.33 270.466C470.444 272.667 466.206 268.071 469.156 254.282L480.092 202.878 487.361 202.878Z" fill="#009579" fill-rule="nonzero" fill-opacity="1" transform="matrix(1.0012 0 0 1 229.79 177)"/><path d="M496.195 270.287 489.024 270.287 498.411 226.331 505.582 226.331 496.195 270.287ZM506.12 206.839C508.043 206.839 509.885 207.947 509.885 210.424 509.885 214.01 506.854 215.852 504.181 215.852 502.258 215.852 500.497 214.743 500.497 212.266 500.497 208.68 503.529 206.839 506.104 206.839Z" fill="#009579" fill-rule="nonzero" fill-opacity="1" transform="matrix(1.0012 0 0 1 229.79 177)"/><path d="M513.112 225.777C520.837 223.756 525.254 227.162 524.048 232.948 529.198 227.146 534.446 224.946 541.438 224.946 549.066 224.946 552.016 229.363 552.293 234.969 556.612 227.977 563.978 224.848 571.329 224.848 583.096 224.848 584.563 233.763 582.363 243.982L579.233 258.699C578.223 263.475 577.767 265.593 584.009 264.86L582.819 270.189C573.252 272.129 569.569 269.635 571.687 259.987L575.094 243.982C576.56 236.632 575.273 230.927 567.825 230.927 560.376 230.927 554.591 236.452 552.831 244.536L547.305 270.287 540.036 270.287 545.562 244.536C547.305 236.909 545.464 231.025 537.836 231.025 530.209 231.025 523.95 236.355 522.206 244.536L516.681 270.287 509.51 270.287 516.127 239.288C517.594 232.476 518.067 229.998 511.988 230.732L513.096 225.761Z" fill="#009579" fill-rule="nonzero" fill-opacity="1" transform="matrix(1.0012 0 0 1 229.79 177)"/><path d="M626.335 267.81C620.826 270.287 615.399 271.021 610.249 271.118 594.244 271.395 586.796 260.997 591.212 245.27 595.173 231.661 605.832 225.125 618.251 224.848 627.362 224.848 636.277 229.167 634.076 239.565 631.876 249.214 621.853 252.62 613.932 252.62 608.146 252.62 601.236 251.43 597.373 248.105 594.521 259.514 600.323 265.3 611.813 265.3 616.866 265.3 622.57 263.458 627.264 261.535L626.351 267.794ZM613.818 246.834C618.87 246.834 625.406 244.993 627.15 239.288 628.894 233.128 622.456 230.732 616.947 230.732 609.222 230.732 602.507 234.692 599.198 242.499 602.23 245.53 608.765 246.818 613.818 246.818Z" fill="#009579" fill-rule="nonzero" fill-opacity="1" transform="matrix(1.0012 0 0 1 229.79 177)"/><path d="M640.873 225.679C648.5 223.935 652.819 226.511 651.352 233.405 655.394 227.244 662.288 225.044 668.922 225.044 680.689 225.044 684.926 233.144 682.71 243.901L679.222 260.541C678.489 264.583 678.766 265.968 683.737 265.235L682.628 270.287C674.072 271.754 669.932 270.01 671.872 260.72L675.457 243.884C677.201 235.882 672.98 230.911 665.711 230.911 658.442 230.911 651.548 236.159 649.804 244.243L644.295 270.271 637.026 270.271 643.741 238.539C645.208 231.824 646.039 229.623 639.976 230.357L640.889 225.663Z" fill="#009579" fill-rule="nonzero" fill-opacity="1" transform="matrix(1.0012 0 0 1 229.79 177)"/><path d="M708.281 226.136 724.563 226.136 723.455 231.384 707.173 231.384 702.3 253.093C699.35 265.968 706.538 267.435 717.93 263.572L717.555 269.456C701.453 274.329 691.625 270.01 695.292 253.272L699.986 231.384 690.614 230.927 691.625 226.152 701.55 226.152 705.234 212.364 711.215 212.364 708.265 226.152Z" fill="#009579" fill-rule="nonzero" fill-opacity="1" transform="matrix(1.0012 0 0 1 229.79 177)"/><path d="M743.779 271.021C733.576 271.021 724.563 264.86 724.563 252.62 724.563 234.317 739.916 224.946 753.166 224.946 763.19 224.946 772.577 231.204 772.577 243.346 772.577 261.372 758.789 271.021 743.795 271.021ZM744.528 264.86C754.095 264.86 764.852 258.699 765.585 244.438 766.042 235.882 759.702 230.927 752.612 230.927 743.143 230.927 731.555 238.017 731.555 251.626 731.555 260.459 737.439 264.876 744.528 264.876Z" fill="#009579" fill-rule="nonzero" fill-opacity="1" transform="matrix(1.0012 0 0 1 229.79 177)"/><path d="M782.144 257.787C781.411 264.501 787.392 265.61 793.357 265.61 799.323 265.61 806.412 263.312 807.618 257.884 808.808 252.734 804.587 251.447 796.764 250.257 788.941 249.246 780.58 247.307 780.58 239.679 780.58 229.477 791.613 225.06 801.914 225.06 811.204 225.06 819.662 229.298 817.641 237.756L810.927 237.756C811.66 232.606 806.689 230.764 800.724 230.764 794.759 230.764 787.49 233.16 787.49 238.864 787.49 242.45 791.255 243.558 798.622 244.65 807.635 245.84 817.022 247.877 814.529 258.357 812.605 267.468 802.582 271.135 792.184 271.412 782.617 271.412 773.881 267.924 775.348 257.803L782.161 257.803Z" fill="#009579" fill-rule="nonzero" fill-opacity="1" transform="matrix(1.0012 0 0 1 229.79 177)"/><path d="M156.201 360.138C93.062 360.138 36.7684 338.837 0 305.556 17.1293 356.895 80.5451 395 156.201 395 231.856 395 295.272 356.879 312.401 305.556 275.649 338.821 219.356 360.138 156.201 360.138Z" fill="#FF9E18" fill-rule="nonzero" fill-opacity="1" transform="matrix(1.0012 0 0 1 229.79 177)"/><path d="M283.212 120.736 283.212 1.05937 257.444 1.05937C221.018 1.05937 191.486 30.5915 191.486 67.0177L191.486 84.0328C168.017 88.5637 145.33 97.5602 120.866 99.7605L120.866 1.05937C70.2121 1.05937 29.1572 42.1142 29.1572 92.7686L29.1572 126.114C110.762 159.819 201.949 82.6964 283.195 120.736Z" fill="#FF9E18" fill-rule="nonzero" fill-opacity="1" transform="matrix(1.0012 0 0 1 229.79 177)"/><path d="M198.282 139.935C166.126 147.139 134.801 157.342 102.629 164.562 74.3029 168.929 51.0781 167.903 29.1572 158.808L29.1572 275.763C29.1572 275.763 56.3913 275.763 56.3913 275.763 92.0026 275.763 120.866 246.899 120.866 211.288L120.866 192.089C144.433 185.994 166.99 175.546 191.486 173.558L191.486 275.747C242.14 275.747 283.195 234.692 283.195 184.038L283.195 153.251C257.2 140.832 225.109 135.796 198.266 139.919Z" fill="#009579" fill-rule="nonzero" fill-opacity="1" transform="matrix(1.0012 0 0 1 229.79 177)"/></g></g></g></g></g></svg>