<svg width="504" height="464" xmlns="http://www.w3.org/2000/svg" xmlns:xlink="http://www.w3.org/1999/xlink" xml:space="preserve" overflow="hidden"><defs><clipPath id="clip0"><rect x="389" y="129" width="502" height="462"/></clipPath><clipPath id="clip1"><rect x="389" y="129" width="502" height="462"/></clipPath><clipPath id="clip2"><rect x="389" y="129" width="502" height="462"/></clipPath></defs><g transform="translate(-388 -128)"><g><g clip-path="url(#clip0)"><g clip-path="url(#clip1)"><g clip-path="url(#clip2)"><path d="M248.573 462C183.477 462 122.066 447.072 75.6773 420.052 26.9264 391.708 0 353.161 0 311.59 0 311.496 0 91.1718 0 91.1718 0 83.519 6.23558 77.2834 13.7939 77.2834L14.2663 77.2834C26.0761 77.0945 38.0748 76.9055 49.8847 76.9055 91.8331 76.9055 133.404 78.3227 173.557 81.1571 184.894 72.2761 198.594 61.0331 211.915 50.0736 231.945 33.7288 252.541 16.8172 265.957 7.08589 272.476 2.36196 280.129-0.0944785 288.16-0.0944785 295.718-0.0944785 303.087 2.17301 309.417 6.42454 329.541 20.1239 366.388 46.4834 405.407 74.5436 435.735 96.3681 467.196 118.854 489.966 134.821 499.036 141.151 498.469 154.283 497.146 164.015L497.146 279.656C497.146 279.656 497.146 279.94 497.146 280.129L497.146 311.401C497.146 353.066 470.314 391.708 421.563 420.052 375.174 447.072 313.763 462 248.667 462Z" fill="#FFFFFF" fill-rule="nonzero" fill-opacity="1" transform="matrix(1.00457 0 0 1 389.91 129)"/><path d="M268.13 92.4945 268.319 92.6834 268.319 92.3055C351.555 103.265 423.358 120.46 476.928 142.096 423.547 105.344 335.588 41.0037 301.67 17.9509 293.261 12.2822 282.302 12.4712 274.082 18.4233 254.62 32.5006 219.474 62.2614 191.98 84.2748 217.962 86.4479 243.377 89.1877 268.225 92.4945Z" fill="#F59A29" fill-rule="nonzero" fill-opacity="1" transform="matrix(1.00457 0 0 1 389.91 129)"/><path d="M479.951 154.567C479.951 154.567 480.423 154.945 480.612 155.134 480.423 154.945 480.14 154.756 479.951 154.567Z" fill="#009679" fill-rule="nonzero" fill-opacity="1" transform="matrix(1.00457 0 0 1 389.91 129)"/><path d="M481.274 155.89C481.274 155.89 480.99 155.512 480.801 155.323 480.99 155.512 481.179 155.701 481.274 155.89Z" fill="#009679" fill-rule="nonzero" fill-opacity="1" transform="matrix(1.00457 0 0 1 389.91 129)"/><path d="M266.524 104.588C190.847 94.384 105.249 89.4712 14.3607 91.1718 14.1718 91.1718 13.9828 91.1718 13.7939 91.1718L13.7939 91.1718 13.7939 311.212C13.7939 311.212 13.7939 311.401 13.7939 311.496 13.7939 387.079 118.854 448.301 248.573 448.301 378.292 448.301 483.352 387.079 483.352 311.496 483.352 311.496 483.352 311.307 483.352 311.212L483.352 279.751C483.352 279.751 483.352 279.751 483.352 279.751L483.352 163.07C483.352 163.07 483.163 159.291 482.88 159.196 482.596 158.063 482.124 156.929 481.463 155.984 481.841 156.456 482.124 157.023 482.407 157.59 429.121 134.348 354.672 115.925 266.902 104.399" fill="#009679" fill-rule="nonzero" fill-opacity="1" transform="matrix(1.00457 0 0 1 389.91 129)"/><path d="M297.702 148.993C232.417 123.294 134.16 104.493 23.5252 99.8638 23.9031 99.8638 24.281 99.8638 24.6589 99.8638 120.649 105.816 213.521 125.845 277.106 150.504 285.798 149.276 288.443 149.465 297.702 148.993Z" fill="#FFFFFF" fill-rule="nonzero" fill-opacity="1" transform="matrix(1.00457 0 0 1 389.91 129)"/><path d="M377.536 146.536C292.883 114.13 171.006 96.3681 21.3521 96.0847 21.8245 96.0847 22.2969 96.0847 22.7693 96.0847 150.315 98.8245 273.043 118.665 356.562 146.158 364.12 146.725 370.072 146.253 377.631 146.536Z" fill="#FFFFFF" fill-rule="nonzero" fill-opacity="1" transform="matrix(1.00457 0 0 1 389.91 129)"/><path d="M146.536 243.188 146.536 212.388C146.631 206.152 143.229 203.129 139.45 203.223 135.766 203.318 132.175 206.436 132.081 212.388L132.081 243.188 113.28 243.188 113.28 212.388C113.374 206.058 109.69 203.129 105.721 203.223 101.848 203.318 97.6908 206.53 97.6908 212.671L97.6908 243.188 78.7951 243.188 78.7951 205.774C78.7951 201.617 78.8896 199.633 74.2601 199.633L74.2601 189.241C81.0626 186.879 97.1239 186.028 97.1239 196.704 100.147 191.036 106.477 188.107 112.618 188.107 121.972 188.107 127.168 191.886 129.719 197.744 133.215 191.602 140.206 188.107 146.914 188.107 162.598 188.107 165.999 198.877 165.715 212.388L165.715 243.188 146.536 243.188Z" fill="#FFFFFF" fill-rule="nonzero" fill-opacity="1" transform="matrix(1.00457 0 0 1 389.91 129)"/><path d="M204.357 244.416C189.902 244.51 175.541 235.063 175.541 216.072 175.541 197.082 189.713 187.729 204.074 187.729 218.434 187.729 232.89 197.082 232.89 216.072 232.89 235.063 218.718 244.321 204.357 244.416ZM204.357 227.693C209.175 227.599 213.994 223.631 213.994 215.978 213.994 208.325 209.175 204.357 204.357 204.263 199.444 204.168 194.531 208.042 194.531 215.978 194.531 223.914 199.444 227.788 204.357 227.693Z" fill="#FFFFFF" fill-rule="nonzero" fill-opacity="1" transform="matrix(1.00457 0 0 1 389.91 129)"/><path d="M280.696 243.188 280.696 212.388C280.79 206.247 277.011 203.223 272.854 203.129 268.414 203.129 263.784 206.247 263.784 212.766L263.784 243.282 244.794 243.282 244.794 205.869C244.794 201.712 244.983 199.728 240.259 199.728L240.259 189.335C247.723 187.54 262.934 186.312 263.312 196.799 266.335 191.13 272.665 188.201 278.806 188.201 294.49 188.201 300.158 198.972 299.78 212.482L299.78 243.282 280.696 243.282Z" fill="#FFFFFF" fill-rule="nonzero" fill-opacity="1" transform="matrix(1.00457 0 0 1 389.91 129)"/><path d="M335.777 189.335 352.216 189.335 352.216 202.751 335.777 202.751 335.777 221.552C335.777 231.378 346.169 230.717 353.066 228.26L354.672 242.432C336.155 247.534 317.164 244.794 317.164 222.025L317.164 202.845 307.717 201.617 307.717 189.429 317.164 189.429 319.243 172.801 335.777 172.801 335.777 189.429Z" fill="#FFFFFF" fill-rule="nonzero" fill-opacity="1" transform="matrix(1.00457 0 0 1 389.91 129)"/><path d="M413.344 220.702 379.898 220.702C380.748 227.788 386.795 229.299 393.314 229.299 399.833 229.299 407.769 227.599 411.548 225.804L413.627 239.503C407.014 242.526 399.55 244.416 392.086 244.51 374.135 244.51 360.908 234.212 360.908 215.883 360.908 196.326 375.647 187.729 389.535 187.729 410.131 188.107 418.162 201.617 413.344 220.607ZM397.471 209.27C398.038 204.357 393.314 202.373 389.441 202.373 385.567 202.373 380.937 204.735 380.087 209.27L397.471 209.27Z" fill="#FFFFFF" fill-rule="nonzero" fill-opacity="1" transform="matrix(1.00457 0 0 1 389.91 129)"/><path d="M78.2282 345.697 78.2282 314.897C78.3227 308.756 74.7325 305.638 70.7644 305.638 66.3239 305.638 61.6 308.945 61.6 315.275L61.6 345.791 42.5153 345.791 42.5153 264.256 61.6 264.256 61.6 298.93C64.2454 293.545 70.3865 290.805 76.4331 290.805 92.1166 290.805 97.4074 301.198 97.4074 315.086L97.4074 345.886 78.2282 345.886Z" fill="#FFFFFF" fill-rule="nonzero" fill-opacity="1" transform="matrix(1.00457 0 0 1 389.91 129)"/><path d="M159.574 323.306 126.129 323.306C126.979 330.391 133.026 331.903 139.545 331.903 146.064 331.903 154 330.202 157.779 328.407L159.858 342.107C153.244 345.13 145.78 347.02 138.317 347.114 120.366 347.114 107.139 336.816 107.139 318.487 107.139 298.93 121.877 290.333 135.766 290.333 156.362 290.71 164.393 304.221 159.574 323.211ZM143.702 311.874C144.269 306.961 139.545 304.977 135.671 304.977 131.798 304.977 127.168 307.339 126.318 311.874L143.702 311.874Z" fill="#FFFFFF" fill-rule="nonzero" fill-opacity="1" transform="matrix(1.00457 0 0 1 389.91 129)"/><path d="M206.152 290.238C210.215 290.144 214.088 291.277 217.112 293.45L213.333 308.85C210.309 306.772 207.097 306.016 204.074 306.205 197.744 306.583 192.264 310.551 192.264 318.676L192.264 345.697 173.652 345.697 173.652 308.189C173.652 304.032 173.463 302.048 168.833 302.048L168.833 291.655C176.297 289.86 190.847 288.632 191.697 299.025 193.775 293.072 200.106 290.238 206.247 290.238Z" fill="#FFFFFF" fill-rule="nonzero" fill-opacity="1" transform="matrix(1.00457 0 0 1 389.91 129)"/><path d="M293.828 345.697 293.828 314.897C293.923 308.661 290.521 305.638 286.742 305.733 283.058 305.827 279.467 308.945 279.373 314.897L279.373 345.697 260.572 345.697 260.572 314.897C260.666 308.567 256.982 305.638 253.014 305.733 249.14 305.827 244.983 309.039 244.983 315.18L244.983 345.697 226.087 345.697 226.087 308.283C226.087 304.126 226.182 302.142 221.552 302.142L221.552 291.75C228.355 289.388 244.416 288.537 244.416 299.214 247.439 293.545 253.769 290.616 259.91 290.616 269.264 290.616 274.46 294.395 277.011 300.253 280.507 294.112 287.498 290.616 294.206 290.616 309.89 290.616 313.291 301.387 313.007 314.897L313.007 345.697 293.828 345.697Z" fill="#FFFFFF" fill-rule="nonzero" fill-opacity="1" transform="matrix(1.00457 0 0 1 389.91 129)"/><path d="M322.928 318.582C322.928 280.696 380.276 280.696 380.276 318.582 380.276 356.467 322.928 356.467 322.928 318.582ZM361.38 318.582C361.38 302.898 341.918 302.898 341.918 318.582 341.918 334.265 361.38 334.265 361.38 318.582ZM342.957 284.664 342.957 282.963 351.46 264.162 367.805 270.02 367.805 271.626 357.318 284.664 343.052 284.664Z" fill="#FFFFFF" fill-rule="nonzero" fill-opacity="1" transform="matrix(1.00457 0 0 1 389.91 129)"/><path d="M428.177 345.697 428.177 314.897C428.271 308.756 424.492 305.733 420.335 305.638 415.895 305.638 411.265 308.756 411.265 315.275L411.265 345.791 392.275 345.791 392.275 308.378C392.275 304.221 392.464 302.237 387.74 302.237L387.74 291.844C395.204 290.049 410.415 288.821 410.793 299.308 413.816 293.639 420.146 290.71 426.287 290.71 441.971 290.71 447.639 301.481 447.261 314.991L447.261 345.791 428.177 345.791Z" fill="#FFFFFF" fill-rule="nonzero" fill-opacity="1" transform="matrix(1.00457 0 0 1 389.91 129)"/></g></g></g></g></g></svg>