<svg width="672" height="480" xmlns="http://www.w3.org/2000/svg" xmlns:xlink="http://www.w3.org/1999/xlink" xml:space="preserve" overflow="hidden"><g transform="translate(-304 -120)"><g><g><g><g><path d="M45.3497 341.811C45.3497 337.717 44.3011 334.628 42.2182 332.545 40.1209 330.448 36.3286 328.279 30.8125 326.038 20.7572 322.231 13.5173 317.764 9.10729 312.636 4.69729 307.508 2.48511 301.46 2.48511 294.479 2.48511 286.032 5.48736 279.238 11.4775 274.109 17.4676 268.981 25.081 266.424 34.3175 266.424 40.48 266.424 45.9674 267.717 50.7796 270.317 55.6062 272.917 59.3123 276.58 61.9123 281.306 64.5124 286.032 65.8052 291.419 65.8052 297.438L45.6083 297.438C45.6083 292.755 44.6027 289.178 42.606 286.722 40.6093 284.265 37.722 283.03 33.9584 283.03 30.4247 283.03 27.6666 284.079 25.6843 286.161 23.7019 288.259 22.7251 291.06 22.7251 294.608 22.7251 297.366 23.8312 299.851 26.029 302.092 28.2269 304.333 32.1341 306.631 37.7507 309.016 47.5332 312.55 54.6437 316.888 59.0825 322.045 63.5212 327.202 65.7334 333.738 65.7334 341.681 65.7334 350.415 62.9466 357.239 57.4018 362.151 51.8426 367.064 44.2867 369.52 34.7341 369.52 28.2556 369.52 22.3516 368.185 17.0223 365.527 11.693 362.87 7.52716 359.048 4.51055 354.093 1.50831 349.137 8.29304e-15 343.276 8.29304e-15 336.524L20.3262 336.524C20.3262 342.313 21.4467 346.522 23.7019 349.137 25.9572 351.751 29.6202 353.058 34.7198 353.058 41.7872 353.058 45.3353 349.309 45.3353 341.825Z" fill="#00609C" fill-rule="nonzero" fill-opacity="1" transform="matrix(1.00246 0 0 1 304 121.07)"/><path d="M138.06 324.731 106.501 324.731 106.501 351.335 143.849 351.335 143.849 368.156 86.2463 368.156 86.2463 267.818 143.72 267.818 143.72 284.696 106.515 284.696 106.515 308.398 138.075 308.398 138.075 324.731Z" fill="#00609C" fill-rule="nonzero" fill-opacity="1" transform="matrix(1.00246 0 0 1 304 121.07)"/><path d="M210.445 347.6 182.807 347.6 177.434 368.141 156.002 368.141 187.36 267.803 205.891 267.803 237.45 368.141 215.817 368.141 210.445 347.6ZM187.217 330.721 205.963 330.721 196.597 294.953 187.231 330.721Z" fill="#00609C" fill-rule="nonzero" fill-opacity="1" transform="matrix(1.00246 0 0 1 304 121.07)"/><path d="M320.45 334.714C319.947 346.149 316.73 354.811 310.797 360.7 304.864 366.576 296.504 369.52 285.716 369.52 274.368 369.52 265.677 365.786 259.63 358.33 253.582 350.861 250.565 340.216 250.565 326.397L250.565 309.519C250.565 295.743 253.683 285.113 259.931 277.643 266.18 270.173 274.856 266.453 285.975 266.453 297.093 266.453 305.209 269.513 310.883 275.618 316.557 281.723 319.789 290.5 320.565 301.948L300.239 301.948C300.052 294.881 298.96 289.997 296.964 287.311 294.967 284.624 291.304 283.274 285.975 283.274 280.645 283.274 276.709 285.17 274.468 288.963 272.213 292.755 271.021 298.989 270.892 307.666L270.892 326.613C270.892 336.582 271.998 343.434 274.239 347.154 276.465 350.875 280.286 352.728 285.716 352.728 291.146 352.728 294.723 351.435 296.748 348.835 298.774 346.235 299.923 341.538 300.196 334.743L320.45 334.743Z" fill="#00609C" fill-rule="nonzero" fill-opacity="1" transform="matrix(1.00246 0 0 1 304 121.07)"/><path d="M410.604 327.001C410.604 340.46 407.429 350.918 401.066 358.359 394.702 365.8 385.868 369.52 374.562 369.52 363.257 369.52 354.466 365.829 348.031 358.46 341.595 351.09 338.334 340.762 338.248 327.489L338.248 310.337C338.248 296.562 341.437 285.788 347.83 278.06 354.222 270.331 363.085 266.453 374.433 266.453 385.781 266.453 394.386 270.26 400.821 277.859 407.257 285.458 410.518 296.131 410.604 309.863L410.604 327.029ZM390.278 310.194C390.278 301.144 388.985 294.407 386.413 289.997 383.842 285.587 379.849 283.375 374.419 283.375 368.989 283.375 365.067 285.501 362.496 289.753 359.925 294.005 358.589 300.469 358.503 309.145L358.503 326.986C358.503 335.763 359.81 342.227 362.424 346.379 365.039 350.53 369.089 352.613 374.548 352.613 380.007 352.613 383.756 350.573 386.327 346.508 388.899 342.443 390.206 336.137 390.249 327.59L390.249 310.151Z" fill="#00609C" fill-rule="nonzero" fill-opacity="1" transform="matrix(1.00246 0 0 1 304 121.07)"/><path d="M478.65 347.6 451.012 347.6 445.64 368.141 424.207 368.141 455.566 267.803 474.096 267.803 505.656 368.141 484.022 368.141 478.65 347.6ZM455.422 330.721 474.168 330.721 464.802 294.953 455.436 330.721Z" fill="#00609C" fill-rule="nonzero" fill-opacity="1" transform="matrix(1.00246 0 0 1 304 121.07)"/><path d="M564.48 341.811C564.48 337.717 563.431 334.628 561.348 332.545 559.251 330.448 555.459 328.279 549.942 326.038 539.887 322.231 532.647 317.764 528.237 312.636 523.827 307.508 521.629 301.46 521.629 294.479 521.629 286.032 524.632 279.238 530.622 274.109 536.612 268.981 544.225 266.424 553.462 266.424 559.624 266.424 565.112 267.717 569.938 270.317 574.765 272.917 578.471 276.58 581.071 281.306 583.671 286.032 584.964 291.419 584.964 297.438L564.767 297.438C564.767 292.755 563.761 289.178 561.765 286.722 559.768 284.265 556.881 283.03 553.117 283.03 549.583 283.03 546.825 284.079 544.843 286.161 542.861 288.259 541.884 291.06 541.884 294.608 541.884 297.366 542.99 299.851 545.188 302.092 547.386 304.333 551.293 306.631 556.895 309.016 566.677 312.55 573.788 316.888 578.227 322.045 582.666 327.187 584.878 333.738 584.878 341.681 584.878 350.415 582.105 357.239 576.546 362.151 570.987 367.064 563.431 369.52 553.878 369.52 547.4 369.52 541.496 368.185 536.167 365.527 530.837 362.87 526.672 359.048 523.655 354.093 520.638 349.137 519.144 343.276 519.144 336.524L539.471 336.524C539.471 342.313 540.591 346.522 542.846 349.137 545.102 351.751 548.779 353.058 553.878 353.058 560.946 353.058 564.494 349.309 564.494 341.825Z" fill="#00609C" fill-rule="nonzero" fill-opacity="1" transform="matrix(1.00246 0 0 1 304 121.07)"/><path d="M670.348 284.696 645.54 284.696 645.54 368.141 625.214 368.141 625.214 284.696 600.823 284.696 600.823 267.818 670.348 267.818 670.348 284.696Z" fill="#00609C" fill-rule="nonzero" fill-opacity="1" transform="matrix(1.00246 0 0 1 304 121.07)"/><path d="M243.469 441.675 216.607 441.675 216.607 476.768 206.623 476.768 206.623 397.288 247.994 397.288 247.994 405.863 216.607 405.863 216.607 433.099 243.469 433.099 243.469 441.675Z" fill="#EE7623" fill-rule="nonzero" fill-opacity="1" transform="matrix(1.00246 0 0 1 304 121.07)"/><path d="M317.62 444.016C317.62 454.862 315.308 463.208 310.682 469.069 306.057 474.929 299.492 477.86 290.974 477.86 282.455 477.86 276.322 475.016 271.567 469.313 266.812 463.624 264.356 455.566 264.169 445.151L264.169 430.197C264.169 419.567 266.51 411.25 271.208 405.217 275.905 399.198 282.455 396.182 290.859 396.182 299.262 396.182 305.755 399.069 310.424 404.829 315.092 410.604 317.491 418.835 317.606 429.537L317.606 444.002ZM307.637 430.097C307.637 421.693 306.258 415.445 303.514 411.351 300.77 407.257 296.547 405.217 290.873 405.217 285.199 405.217 281.22 407.286 278.404 411.437 275.589 415.588 274.152 421.693 274.124 429.781L274.124 444.031C274.124 452.147 275.531 458.338 278.361 462.59 281.177 466.842 285.4 468.982 291.002 468.982 296.605 468.982 300.756 467.014 303.457 463.093 306.143 459.157 307.551 453.138 307.666 445.022L307.666 430.126Z" fill="#EE7623" fill-rule="nonzero" fill-opacity="1" transform="matrix(1.00246 0 0 1 304 121.07)"/><path d="M390.364 444.016C390.364 454.862 388.051 463.208 383.426 469.069 378.8 474.929 372.235 477.86 363.717 477.86 355.199 477.86 349.065 475.016 344.31 469.313 339.555 463.624 337.099 455.566 336.912 445.151L336.912 430.197C336.912 419.567 339.254 411.25 343.951 405.217 348.648 399.198 355.199 396.182 363.602 396.182 372.006 396.182 378.498 399.069 383.167 404.829 387.85 410.604 390.234 418.835 390.349 429.537L390.349 444.002ZM380.366 430.097C380.366 421.693 378.987 415.445 376.243 411.351 373.5 407.257 369.291 405.217 363.602 405.217 357.914 405.217 353.949 407.286 351.133 411.437 348.318 415.588 346.881 421.693 346.853 429.781L346.853 444.031C346.853 452.147 348.261 458.338 351.076 462.59 353.892 466.842 358.115 468.982 363.717 468.982 369.319 468.982 373.471 467.014 376.157 463.093 378.843 459.171 380.251 453.138 380.366 445.022L380.366 430.126Z" fill="#EE7623" fill-rule="nonzero" fill-opacity="1" transform="matrix(1.00246 0 0 1 304 121.07)"/><path d="M411.394 476.768 411.394 397.288 430.341 397.288C439.621 397.288 446.832 400.189 451.96 405.993 457.088 411.796 459.66 419.955 459.66 430.47L459.66 443.787C459.66 454.302 457.06 462.432 451.86 468.164 446.659 473.895 439.104 476.768 429.206 476.768L411.408 476.768ZM421.392 405.863 421.392 468.207 429.422 468.207C436.446 468.207 441.574 466.196 444.821 462.173 448.053 458.151 449.719 452.19 449.791 444.275L449.791 430.183C449.791 421.808 448.182 415.66 444.964 411.739 441.747 407.831 436.877 405.863 430.355 405.863L421.406 405.863Z" fill="#EE7623" fill-rule="nonzero" fill-opacity="1" transform="matrix(1.00246 0 0 1 304 121.07)"/><path d="M184.99 123.911C177.147 123.911 172.952 120.866 169.577 118.424 166.574 116.24 164.405 114.674 159.521 114.674 154.637 114.674 152.468 116.24 149.466 118.424 146.09 120.866 141.91 123.911 134.067 123.911 126.224 123.911 122.029 120.866 118.668 118.424 115.665 116.254 113.496 114.674 108.627 114.674 106.113 114.674 104.059 112.634 104.059 110.106 104.059 107.578 106.099 105.538 108.627 105.538 116.47 105.538 120.664 108.584 124.026 111.026 127.028 113.209 129.197 114.775 134.081 114.775 138.965 114.775 141.134 113.209 144.137 111.026 147.512 108.584 151.692 105.538 159.536 105.538 167.379 105.538 171.573 108.584 174.949 111.026 177.951 113.209 180.12 114.775 185.004 114.775 189.888 114.775 192.058 113.209 195.06 111.026 198.436 108.584 202.616 105.538 210.473 105.538 212.987 105.538 215.041 107.578 215.041 110.106 215.041 112.634 213.001 114.674 210.473 114.674 205.589 114.674 203.42 116.24 200.418 118.424 197.042 120.866 192.862 123.911 185.004 123.911Z" fill="#00609C" fill-rule="nonzero" fill-opacity="1" transform="matrix(1.00246 0 0 1 304 121.07)"/><path d="M184.99 158.43C177.147 158.43 172.952 155.384 169.577 152.942 166.574 150.773 164.405 149.193 159.521 149.193 154.637 149.193 152.468 150.759 149.466 152.942 146.09 155.384 141.91 158.43 134.067 158.43 126.224 158.43 122.029 155.384 118.668 152.942 115.665 150.759 113.496 149.193 108.627 149.193 106.113 149.193 104.059 147.153 104.059 144.625 104.059 142.097 106.099 140.057 108.627 140.057 116.47 140.057 120.664 143.102 124.026 145.544 127.028 147.728 129.197 149.294 134.081 149.294 138.965 149.294 141.134 147.728 144.137 145.544 147.512 143.102 151.692 140.057 159.536 140.057 167.379 140.057 171.573 143.102 174.949 145.544 177.951 147.713 180.12 149.294 185.004 149.294 189.888 149.294 192.058 147.728 195.06 145.544 198.436 143.102 202.616 140.057 210.473 140.057 212.987 140.057 215.041 142.097 215.041 144.625 215.041 147.153 213.001 149.193 210.473 149.193 205.589 149.193 203.42 150.759 200.418 152.942 197.042 155.384 192.862 158.43 185.004 158.43Z" fill="#00609C" fill-rule="nonzero" fill-opacity="1" transform="matrix(1.00246 0 0 1 304 121.07)"/><path d="M184.99 193.235C177.147 193.235 172.952 190.19 169.577 187.748 166.574 185.579 164.405 183.999 159.521 183.999 154.637 183.999 152.468 185.565 149.466 187.748 146.09 190.19 141.91 193.235 134.067 193.235 126.224 193.235 122.029 190.19 118.668 187.748 115.665 185.565 113.496 183.999 108.627 183.999 106.113 183.999 104.059 181.959 104.059 179.431 104.059 176.903 106.099 174.863 108.627 174.863 116.47 174.863 120.664 177.908 124.026 180.35 127.028 182.534 129.197 184.099 134.081 184.099 138.965 184.099 141.134 182.534 144.137 180.35 147.512 177.908 151.692 174.863 159.536 174.863 167.379 174.863 171.573 177.908 174.949 180.35 177.951 182.519 180.12 184.099 185.004 184.099 189.888 184.099 192.058 182.534 195.06 180.35 198.436 177.908 202.616 174.863 210.473 174.863 212.987 174.863 215.041 176.903 215.041 179.431 215.041 181.959 213.001 183.999 210.473 183.999 205.589 183.999 203.42 185.565 200.418 187.748 197.042 190.19 192.862 193.235 185.004 193.235Z" fill="#00609C" fill-rule="nonzero" fill-opacity="1" transform="matrix(1.00246 0 0 1 304 121.07)"/><path d="M537.675 123.911C529.832 123.911 525.637 120.866 522.261 118.424 519.259 116.24 517.09 114.674 512.206 114.674 507.322 114.674 505.153 116.24 502.151 118.424 498.775 120.866 494.595 123.911 486.752 123.911 478.909 123.911 474.714 120.866 471.353 118.424 468.35 116.254 466.181 114.674 461.312 114.674 458.798 114.674 456.744 112.634 456.744 110.106 456.744 107.578 458.783 105.538 461.312 105.538 469.155 105.538 473.349 108.584 476.711 111.026 479.713 113.209 481.882 114.775 486.766 114.775 491.65 114.775 493.819 113.209 496.821 111.026 500.197 108.584 504.377 105.538 512.22 105.538 520.064 105.538 524.258 108.584 527.634 111.026 530.636 113.209 532.805 114.775 537.689 114.775 542.573 114.775 544.742 113.209 547.745 111.026 551.12 108.584 555.301 105.538 563.158 105.538 565.672 105.538 567.726 107.578 567.726 110.106 567.726 112.634 565.686 114.674 563.158 114.674 558.274 114.674 556.105 116.24 553.103 118.424 549.727 120.866 545.547 123.911 537.689 123.911Z" fill="#00609C" fill-rule="nonzero" fill-opacity="1" transform="matrix(1.00246 0 0 1 304 121.07)"/><path d="M537.675 158.43C529.832 158.43 525.637 155.384 522.261 152.942 519.259 150.773 517.09 149.193 512.206 149.193 507.322 149.193 505.153 150.759 502.151 152.942 498.775 155.384 494.595 158.43 486.752 158.43 478.909 158.43 474.714 155.384 471.353 152.942 468.35 150.759 466.181 149.193 461.312 149.193 458.798 149.193 456.744 147.153 456.744 144.625 456.744 142.097 458.783 140.057 461.312 140.057 469.155 140.057 473.349 143.102 476.711 145.544 479.713 147.728 481.882 149.294 486.766 149.294 491.65 149.294 493.819 147.728 496.821 145.544 500.197 143.102 504.377 140.057 512.22 140.057 520.064 140.057 524.258 143.102 527.634 145.544 530.636 147.713 532.805 149.294 537.689 149.294 542.573 149.294 544.742 147.728 547.745 145.544 551.12 143.102 555.301 140.057 563.158 140.057 565.672 140.057 567.726 142.097 567.726 144.625 567.726 147.153 565.686 149.193 563.158 149.193 558.274 149.193 556.105 150.759 553.103 152.942 549.727 155.384 545.547 158.43 537.689 158.43Z" fill="#00609C" fill-rule="nonzero" fill-opacity="1" transform="matrix(1.00246 0 0 1 304 121.07)"/><path d="M537.675 193.235C529.832 193.235 525.637 190.19 522.261 187.748 519.259 185.579 517.09 183.999 512.206 183.999 507.322 183.999 505.153 185.565 502.151 187.748 498.775 190.19 494.595 193.235 486.752 193.235 478.909 193.235 474.714 190.19 471.353 187.748 468.35 185.565 466.181 183.999 461.312 183.999 458.798 183.999 456.744 181.959 456.744 179.431 456.744 176.903 458.783 174.863 461.312 174.863 469.155 174.863 473.349 177.908 476.711 180.35 479.713 182.534 481.882 184.099 486.766 184.099 491.65 184.099 493.819 182.534 496.821 180.35 500.197 177.908 504.377 174.863 512.22 174.863 520.064 174.863 524.258 177.908 527.634 180.35 530.636 182.519 532.805 184.099 537.689 184.099 542.573 184.099 544.742 182.534 547.745 180.35 551.12 177.908 555.301 174.863 563.158 174.863 565.672 174.863 567.726 176.903 567.726 179.431 567.726 181.959 565.686 183.999 563.158 183.999 558.274 183.999 556.105 185.565 553.103 187.748 549.727 190.19 545.547 193.235 537.689 193.235Z" fill="#00609C" fill-rule="nonzero" fill-opacity="1" transform="matrix(1.00246 0 0 1 304 121.07)"/><path d="M347.614 222.611C346.35 222.611 345.158 222.123 344.267 221.232 343.376 220.342 342.874 219.15 342.874 217.885 342.874 216.621 343.362 215.429 344.253 214.524 370.066 188.567 405.677 173.685 441.962 173.685 444.577 173.685 446.703 175.811 446.703 178.425 446.703 181.04 444.577 183.166 441.962 183.166 408.176 183.166 375.022 197.028 350.975 221.204 350.085 222.109 348.878 222.597 347.614 222.597Z" fill="#EE7623" fill-rule="nonzero" fill-opacity="1" transform="matrix(1.00246 0 0 1 304 121.07)"/><path d="M264.715 222.611C263.853 222.611 262.991 222.367 262.244 221.922 261.167 221.261 260.405 220.227 260.104 218.992 259.802 217.756 260.003 216.492 260.664 215.415L267.272 204.598C269.814 200.432 272.587 196.252 275.503 192.172 260.52 186.254 244.819 183.252 228.831 183.252 226.217 183.252 224.091 181.126 224.091 178.512 224.091 175.897 226.217 173.771 228.831 173.771 246.902 173.771 264.585 177.319 281.407 184.329 286.908 177.362 292.913 170.711 299.262 164.549 277.255 153.962 252.921 148.374 228.846 148.374 226.231 148.374 224.105 146.248 224.105 143.634 224.105 141.019 226.231 138.893 228.846 138.893 255.607 138.893 282.527 145.372 306.717 157.654 312.966 152.138 319.617 146.981 326.483 142.283 296.834 125.161 263.092 116.111 228.86 116.111 226.246 116.111 224.12 113.985 224.12 111.37 224.12 108.756 226.246 106.63 228.86 106.63 235.023 106.63 241.3 106.917 247.52 107.492L247.52 93.6729C235.698 83.4452 229.176 70.0141 229.176 55.8648 229.176 40.9541 236.316 27.0058 249.287 16.577 250.12 15.9018 251.183 15.5284 252.26 15.5284 253.338 15.5284 254.386 15.9018 255.234 16.577 268.205 27.0058 275.345 40.9541 275.345 55.8648 275.345 70.7754 268.837 83.4308 257.001 93.6729L257.001 108.569C259.73 108.943 262.517 109.388 265.289 109.891L265.289 93.831C265.289 92.5669 265.778 91.3889 266.668 90.484L290.931 66.0781C291.807 65.1875 293.042 64.6847 294.292 64.6847L343.822 64.6847C345.086 64.6847 346.293 65.1875 347.183 66.0781L371.445 90.484C372.336 91.3746 372.824 92.5669 372.824 93.831L372.824 118.61C380.51 115.852 388.41 113.539 396.296 111.73L396.296 101.114C380.653 87.8121 372.049 70.3014 372.049 51.7995 372.049 33.2976 381.285 14.5228 398.078 1.0199 398.911 0.344756 399.974-0.0287296 401.051-0.0287296 402.129-0.0287296 403.177 0.344756 404.025 1.0199 420.803 14.5085 430.054 32.5507 430.054 51.7995 430.054 71.0484 421.449 87.7977 405.806 101.114L405.806 109.79C417.772 107.636 429.968 106.544 442.048 106.544 444.663 106.544 446.789 108.67 446.789 111.284 446.789 113.899 444.663 116.025 442.048 116.025 428.675 116.025 415.215 117.447 402.042 120.233 356.219 129.958 315.365 155.7 286.98 192.718 286.865 192.905 286.707 193.106 286.535 193.307 282.57 198.522 278.835 203.98 275.46 209.525L268.852 220.342C267.99 221.764 266.467 222.611 264.801 222.611ZM323.237 129.7C327.302 131.812 331.382 134.11 335.332 136.523 337.587 135.144 339.699 133.909 341.796 132.731 348.677 128.867 355.903 125.347 363.286 122.288L363.286 98.5714 323.237 98.5714 323.237 129.7ZM308.513 122.776C310.223 123.494 311.989 124.27 313.756 125.089L313.756 98.5857 274.713 98.5857 274.713 111.844C276.465 112.247 278.218 112.678 279.956 113.123L279.956 108.497C279.956 105.883 282.082 103.757 284.696 103.757L303.758 103.757C306.373 103.757 308.499 105.883 308.499 108.497L308.499 122.776ZM289.451 115.809C292.64 116.8 295.858 117.878 299.032 119.041L299.032 113.238 289.451 113.238 289.451 115.809ZM356.635 89.0906 341.796 74.1655 305.626 74.1655 320.465 89.0906 356.635 89.0906ZM307.105 89.0906 294.234 76.1479 281.364 89.0906 307.091 89.0906ZM400.979 10.9604C388.396 22.2511 381.472 36.7452 381.472 51.8282 381.472 64.9577 386.571 77.4407 396.253 87.9988L396.253 41.4856C396.253 38.8712 398.379 36.7452 400.994 36.7452 403.608 36.7452 405.734 38.8712 405.734 41.4856L405.734 87.9845C415.402 77.4263 420.516 64.9433 420.516 51.8139 420.516 36.7308 413.592 22.2367 401.008 10.946ZM252.217 47.6481C254.832 47.6481 256.958 49.7741 256.958 52.3885L256.958 80.0838C262.761 72.844 265.821 64.4836 265.821 55.8648 265.821 45.1342 260.994 34.7341 252.217 26.5318 243.44 34.7341 238.614 45.1342 238.614 55.8648 238.614 64.498 241.674 72.844 247.477 80.0838L247.477 52.3885C247.477 49.7741 249.603 47.6481 252.217 47.6481Z" fill="#EE7623" fill-rule="nonzero" fill-opacity="1" transform="matrix(1.00246 0 0 1 304 121.07)"/><path d="M302.796 224.206C301.948 224.163 301.144 223.904 300.44 223.43 299.435 222.755 298.745 221.721 298.515 220.529 298.285 219.336 298.53 218.115 299.219 217.11L304.678 209.022C306.861 205.776 309.246 202.529 311.731 199.384L316.155 194.04C320.809 188.653 325.866 183.554 331.181 178.856L336.654 174.231C341.883 170.022 347.413 166.115 353.101 162.61L359.551 158.846C361.404 157.826 363.2 156.878 364.881 156.031 370.411 153.244 376.2 150.759 382.075 148.633L388.884 146.334C395.176 144.381 401.597 142.801 407.989 141.651L414.741 140.588C421.823 139.626 429.02 139.138 436.13 139.138 438.586 139.138 440.957 139.195 443.298 139.296 445.812 139.411 447.751 141.551 447.651 144.05 447.536 146.492 445.539 148.403 443.097 148.403L442.896 148.403C440.712 148.302 438.5 148.245 436.317 148.245 428.201 148.245 420.113 148.906 412.141 150.227 376.775 156.074 344.626 174.331 321.628 201.639 321.556 201.754 321.398 201.941 321.212 202.127 318.023 205.934 314.992 209.97 312.219 214.079L306.761 222.166C305.913 223.43 304.505 224.177 302.983 224.177L302.782 224.177Z" fill="#EE7623" fill-rule="nonzero" fill-opacity="1" transform="matrix(1.00246 0 0 1 304 121.07)"/></g></g></g></g></g></svg>